<?xml version="1.0" encoding="utf-8"?>
<?xml-stylesheet type="text/xsl" href="rss1.xsl"?>
<rss version="2.0" xmlns:atom="http://www.w3.org/2005/Atom" xmlns:content="http://purl.org/rss/1.0/modules/content/" xmlns:dc="http://purl.org/dc/elements/1.1/" xmlns:media="http://search.yahoo.com/mrss/">
<channel>
 <title>Getty</title>
 <link>http://www.gettyimg.com/</link>
 <atom:link href="http://www.gettyimg.com/" rel="self" type="application/rss+xml" />

 
                <item>
                <title><![CDATA[【Cinema Center】SERIES - Chibi Tiny Tales - Season 1-4 - 1080p Disney+ WEB-DL AAC2.0 H.264-LAZY]]></title>
                <link><![CDATA[https://sharemania.us/threads/chibi-tiny-tales-season-1-4-1080p-disney-web-dl-aac2-0-h-264-lazy.243282/]]></link>
                <description><![CDATA[<article>
<blockquote class="messageText SelectQuoteContainer ugc baseHtml">
Chibi Tiny Tales:<img src="https://artworks.thetvdb.com/banners/v4/series/422819/banners/662efc23c067a.jpg" class="bbCodeImage LbImage" alt="[​IMG]" data-url="https://artworks.thetvdb.com/banners/v4/series/422819/banners/662efc23c067a.jpg" style=""> <br>
<br>
<div class="bbCodeBlock bbCodeQuote">
<aside>
<blockquote class="quoteContainer"><div class="quote"><i><b>Synopsis:</b></i><br>
The adventures of various Disney characters are presented in chibi style.</div><div class="quoteExpand">Click to expand...</div></blockquote>
</aside>
</div>
<div class="ToggleTriggerAnchor bbCodeSpoilerContainer">
<button type="button" class="button bbCodeSpoilerButton ToggleTrigger Tooltip JsOnly" data-target="> .SpoilerTarget"><span>Spoiler: <span class="SpoilerTitle">MediaInfo</span></span></button>
<div class="SpoilerTarget bbCodeSpoilerText">General<br>
Unique ID : 16294867754141125830498173849009541312 (0xC424702082508EA4EBEE3A811F250C0)<br>
Complete name : Chibi.Tiny.Tales.S01E01.Big.City.Greens.Breakfastland.1080p.DSNP.WEB-DL.AAC2.0.H.264-LAZY.mkv<br>
Format : Matroska<br>
Format version : Version 4<br>
File size : 51.1 MiB<br>
Duration : 1 min 4 s<br>
Overall bit rate mode : Variable<br>
Overall bit rate : 6 679 kb/s<br>
Encoded date : UTC 2024-04-28 22:55:58<br>
Writing application : mkvmerge v83.0 ('Circle Of Friends') 64-bit<br>
Writing library : libebml v1.4.5 + libmatroska v1.7.1<br>
<br>
Video<br>
ID : 1<br>
Format : AVC<br>
Format/Info : Advanced Video Codec<br>
Format profile : High@L4<br>
Format settings : CABAC / 4 Ref Frames<br>
Format settings, CABAC : Yes<br>
Format settings, Reference frames : 4 frames<br>
Codec ID : V_MPEG4/ISO/AVC<br>
Duration : 1 min 4 s<br>
Bit rate mode : Variable<br>
Bit rate : 6 550 kb/s<br>
Maximum bit rate : 12.7 Mb/s<br>
Width : 1 920 pixels<br>
Height : 1 080 pixels<br>
Display aspect ratio : 16:9<br>
Frame rate mode : Constant<br>
Frame rate : 23.976 (24000/1001) FPS<br>
Color space : YUV<br>
Chroma subsampling : 4:2:0<br>
Bit depth : 8 bits<br>
Scan type : Progressive<br>
Bits/(Pixel*Frame) : 0.132<br>
Stream size : 50.1 MiB (98%)<br>
Default : Yes<br>
Forced : No<br>
Color range : Limited<br>
Color primaries : BT.709<br>
Transfer characteristics : BT.709<br>
Matrix coefficients : BT.709<br>
<br>
Audio<br>
ID : 2<br>
Format : AAC LC<br>
Format/Info : Advanced Audio Codec Low Complexity<br>
Codec ID : A_AAC-2<br>
Duration : 1 min 4 s<br>
Bit rate : 125 kb/s<br>
Channel(s) : 2 channels<br>
Channel layout : L R<br>
Sampling rate : 48.0 kHz<br>
Frame rate : 46.875 FPS (1024 SPF)<br>
Compression mode : Lossy<br>
Stream size : 981 KiB (2%)<br>
Language : English<br>
Default : Yes<br>
Forced : No<br>
<br>
Text<br>
ID : 3<br>
Format : UTF-8<br>
Codec ID : S_TEXT/UTF8<br>
Codec ID/Info : UTF-8 Plain Text<br>
Duration : 25 s 317 ms<br>
Bit rate : 13 b/s<br>
Count of elements : 4<br>
Stream size : 42.0 Bytes (0%)<br>
Title : SDH<br>
Language : English<br>
Default : No<br>
Forced : No<br>
<br>
Menu<br>
00:00:00.000 : en:Scene 1<br>
00:00:09.426 : en:Intro<br>
00:00:11.386 : en:intro_end<br>
00:01:02.145 : en:Credits</div>
</div><br>
Screenshots:<br>
<img src="https://ptpimg.me/b75g80.jpg" class="bbCodeImage LbImage" alt="[​IMG]" data-url="https://ptpimg.me/b75g80.jpg" style=""> <br>
<br>
<div class="bbCodeBlock bbCodeVfcHH HiddenContent">
<div class="attribution type">Hidden Content:</div>
<blockquote>You must either reply or click 'Like' to see the hidden information contained here.</blockquote>
</div>
<div class="messageTextEndMarker">&nbsp;</div>
</blockquote>
</article>]]></description>
                <author><![CDATA[LazyRips]]></author>
                </item>

                
                <item>
                <title><![CDATA[【HD Live Performances】HDTV - Mariah Carey - I Want to Know What Love Is + H.A.T.E.U - 유희열의 스케치북 2009-10-13 KBS2HD 1080i DD5.1 MPEG2-rai]]></title>
                <link><![CDATA[https://sharemania.us/threads/mariah-carey-i-want-to-know-what-love-is-h-a-t-e-u-%EC%9C%A0%ED%9D%AC%EC%97%B4%EC%9D%98-%EC%8A%A4%EC%BC%80%EC%B9%98%EB%B6%81-2009-10-13-kbs2hd-1080i-dd5-1-mpeg2-rai.243278/]]></link>
                <description><![CDATA[<article>
<blockquote class="messageText SelectQuoteContainer ugc baseHtml">
<div style="text-align: center"><img src="https://i.ibb.co/mtQ3yCk/Mariah-Carey-I-Want-to-Know-What-Love-Is-2009-10-13-KBS2-HD-1080i-DD5-1-MPEG2-rai-ts.png" class="bbCodeImage LbImage" alt="[​IMG]" data-url="https://i.ibb.co/mtQ3yCk/Mariah-Carey-I-Want-to-Know-What-Love-Is-2009-10-13-KBS2-HD-1080i-DD5-1-MPEG2-rai-ts.png" style=""><br>
<img src="https://i.ibb.co/3N1qptq/Mariah-Carey-H-A-T-E-U-2009-10-13-KBS2-HD-1080i-DD5-1-MPEG2-rai-ts.png" class="bbCodeImage LbImage" alt="[​IMG]" data-url="https://i.ibb.co/3N1qptq/Mariah-Carey-H-A-T-E-U-2009-10-13-KBS2-HD-1080i-DD5-1-MPEG2-rai-ts.png" style=""> <br>
<div class="bbCodeBlock bbCodeVfcHH HiddenContent">
<div class="attribution type">Hidden Content:</div>
<blockquote>You must either reply or click 'Like' to see the hidden information contained here.</blockquote>
</div></div>
<div class="messageTextEndMarker">&nbsp;</div>
</blockquote>
</article>]]></description>
                <author><![CDATA[SCANDAL]]></author>
                </item>

                
                <item>
                <title><![CDATA[【Cinema Center】SERIES - Penn Zero: Part-Time Hero - Season 1-2 - 1080p Amazon WEB-DL DDP2.0 H.264-LAZY]]></title>
                <link><![CDATA[https://sharemania.us/threads/penn-zero-part-time-hero-season-1-2-1080p-amazon-web-dl-ddp2-0-h-264-lazy.243281/]]></link>
                <description><![CDATA[<article>
<blockquote class="messageText SelectQuoteContainer ugc baseHtml">
thanks
<div class="messageTextEndMarker">&nbsp;</div>
</blockquote>
</article>]]></description>
                <author><![CDATA[LazyRips]]></author>
                </item>

                
                <item>
                <title><![CDATA[【Requests】[REQ VID] - DVD We Are the world]]></title>
                <link><![CDATA[https://sharemania.us/threads/dvd-we-are-the-world.243279/]]></link>
                <description><![CDATA[<article>
<blockquote class="messageText SelectQuoteContainer ugc baseHtml">
Penn Zero: Part-Time Hero:<img src="http:////cdn2.broadcasthe.net/tvdb/banners/graphical/288914-g.jpg" class="bbCodeImage LbImage" alt="[​IMG]" data-url="http:////cdn2.broadcasthe.net/tvdb/banners/graphical/288914-g.jpg" style=""> <br>
<br>
<div class="bbCodeBlock bbCodeQuote">
<aside>
<blockquote class="quoteContainer"><div class="quote"><i><b>Synopsis:</b></i><br>
The animated comedy adventure series follows Penn Zero, a boy from the suburbs who inherits the coolest job ever – part-time hero and leader of a team of good guys who zap to other worlds to save the day. With his sidekick Sashi and wise man Boone, the three tackle everything from outer space and the Old West, to lands of enchantment and the ultimate challenge – suburbia. The Campaign‘s Thomas Middleditch stars as Penn.</div><div class="quoteExpand">Click to expand...</div></blockquote>
</aside>
</div>
<div class="ToggleTriggerAnchor bbCodeSpoilerContainer">
<button type="button" class="button bbCodeSpoilerButton ToggleTrigger Tooltip JsOnly" data-target="> .SpoilerTarget"><span>Spoiler: <span class="SpoilerTitle">MediaInfo</span></span></button>
<div class="SpoilerTarget bbCodeSpoilerText">General<br>
Unique ID : 109041281519477648853180985329507739795 (0x52089640BC10A86AFB4EE5749D11A893)<br>
Complete name : Penn.Zero.Part-Time.Hero.S01E01.North.Pole.Down.1080p.AMZN.WEB-DL.DDP2.0.H.264-LAZY.mkv<br>
Format : Matroska<br>
Format version : Version 4<br>
File size : 1.12 GiB<br>
Duration : 22 min 22 s<br>
Overall bit rate : 7 137 kb/s<br>
Frame rate : 23.976 FPS<br>
Encoded date : 2024-04-25 17:53:29 UTC<br>
Writing application : mkvmerge v63.0.0 ('Everything') 32-bit<br>
Writing library : libebml v1.4.2 + libmatroska v1.6.4<br>
<br>
Video<br>
ID : 1<br>
Format : AVC<br>
Format/Info : Advanced Video Codec<br>
Format profile : High@L4<br>
Format settings : CABAC / 4 Ref Frames<br>
Format settings, CABAC : Yes<br>
Format settings, Reference frames : 4 frames<br>
Codec ID : V_MPEG4/ISO/AVC<br>
Duration : 22 min 22 s<br>
Bit rate mode : Constant<br>
Bit rate : 6 911 kb/s<br>
Nominal bit rate : 10 000 kb/s<br>
Width : 1 920 pixels<br>
Height : 1 080 pixels<br>
Display aspect ratio : 16:9<br>
Frame rate mode : Constant<br>
Frame rate : 23.976 (24000/1001) FPS<br>
Color space : YUV<br>
Chroma subsampling : 4:2:0<br>
Bit depth : 8 bits<br>
Scan type : Progressive<br>
Bits/(Pixel*Frame) : 0.139<br>
Stream size : 1.08 GiB (97%)<br>
Default : Yes<br>
Forced : No<br>
Color range : Limited<br>
Color primaries : BT.709<br>
Transfer characteristics : BT.709<br>
Matrix coefficients : BT.709<br>
<br>
Audio<br>
ID : 2<br>
Format : E-AC-3<br>
Format/Info : Enhanced AC-3<br>
Commercial name : Dolby Digital Plus<br>
Codec ID : A_EAC3<br>
Duration : 22 min 22 s<br>
Bit rate mode : Constant<br>
Bit rate : 224 kb/s<br>
Channel(s) : 2 channels<br>
Channel layout : L R<br>
Sampling rate : 48.0 kHz<br>
Frame rate : 31.250 FPS (1536 SPF)<br>
Compression mode : Lossy<br>
Stream size : 35.8 MiB (3%)<br>
Language : English<br>
Service kind : Complete Main<br>
Default : Yes<br>
Forced : No<br>
<br>
Text<br>
ID : 3<br>
Format : UTF-8<br>
Codec ID : S_TEXT/UTF8<br>
Codec ID/Info : UTF-8 Plain Text<br>
Duration : 21 min 43 s<br>
Bit rate : 72 b/s<br>
Frame rate : 0.311 FPS<br>
Count of elements : 405<br>
Stream size : 11.5 KiB (0%)<br>
Language : English<br>
Default : No<br>
Forced : No</div>
</div><br>
Screenshots:<br>
<img src="https://ptpimg.me/e1339v.jpg" class="bbCodeImage LbImage" alt="[​IMG]" data-url="https://ptpimg.me/e1339v.jpg" style=""> <br>
<br>
<div class="bbCodeBlock bbCodeVfcHH HiddenContent">
<div class="attribution type">Hidden Content:</div>
<blockquote>You must either reply or click 'Like' to see the hidden information contained here.</blockquote>
</div>
<div class="messageTextEndMarker">&nbsp;</div>
</blockquote>
</article>]]></description>
                <author><![CDATA[gujbarreto]]></author>
                </item>

                
                <item>
                <title><![CDATA[【SD Live Performances】SDTV - Mariah Carey - Migrate／Touch My Body／Shake it off／Love Story／We Belong Together - E=MC² The Relativity of 2008 BET 480i LPCM MPEG2]]></title>
                <link><![CDATA[https://sharemania.us/threads/mariah-carey-migrate%EF%BC%8Ftouch-my-body%EF%BC%8Fshake-it-off%EF%BC%8Flove-story%EF%BC%8Fwe-belong-together-e-mc%C2%B2-the-relativity-of-2008-bet-480i-lpcm-mpeg2.243280/]]></link>
                <description><![CDATA[<article>
<blockquote class="messageText SelectQuoteContainer ugc baseHtml">
<img src="https://dcdn.mitiendanube.com/stores/003/637/611/products/img_20221022_154457089-fa27082a99b014fd6117069122894093-1024-1024.webp" class="bbCodeImage LbImage" alt="[​IMG]" data-url="https://dcdn.mitiendanube.com/stores/003/637/611/products/img_20221022_154457089-fa27082a99b014fd6117069122894093-1024-1024.webp" style=""> <br>
Some Has it??????
<div class="messageTextEndMarker">&nbsp;</div>
</blockquote>
</article>]]></description>
                <author><![CDATA[SCANDAL]]></author>
                </item>

                </channel></rss>